<svg xmlns="http://www.w3.org/2000/svg" width="40" height="40" fill="none">
  <path fill="url(#a)" d="m35.161 23.205-8.434-19.32-1.84-1.276-2.156-.686-2.917-.785-3.425 1.471-2.283 1.275 8.625 19.321h12.43Z"/>
  <path fill="url(#b)" d="m4.892 16.743 8.435 19.366 1.84 1.278 2.156.688 2.917.787 3.425-1.475 2.283-1.278-8.625-19.366H4.893Z"/>
  <path fill="#fff" d="M13.655 4.136.56 23.064l13.095.14L23.12 4.136c.665-1.95 2.744-.813 3.701 0-4.088-7.49-10.481-3.121-13.167 0Zm12.691 31.728L39.44 16.936l-13.094-.14-9.466 19.068c-.665 1.95-2.744.813-3.701 0 4.088 7.49 10.481 3.121 13.167 0Z"/>
  <defs>
    <linearGradient id="a" x1="32.98" x2="22.977" y1="23.205" y2="4.491" gradientUnits="userSpaceOnUse">
      <stop/>
      <stop offset=".495" stop-color="#fff"/>
      <stop offset="1" stop-color="#fff"/>
    </linearGradient>
    <linearGradient id="b" x1="7.074" x2="17.114" y1="16.743" y2="35.481" gradientUnits="userSpaceOnUse">
      <stop stop-color="#0C0C0C"/>
      <stop offset=".495" stop-color="#fff"/>
      <stop offset="1" stop-color="#fff"/>
    </linearGradient>
  </defs>
</svg>
